<svg width="16" height="16" viewBox="0 0 16 16" fill="none" xmlns="http://www.w3.org/2000/svg">
<path d="M14.5057 3.8264L14.5214 3.86058L14.4905 3.88207L8.02572 8.38467L8 8.40259L7.97428 8.38467L1.50946 3.88207L1.47861 3.86058L1.49427 3.8264C1.5548 3.69425 1.6462 3.59125 1.76802 3.51872C1.88839 3.44705 2.02603 3.40577 2.17994 3.39402L2.17993 3.39389H2.18337H13.8166V3.39376L13.8201 3.39402C13.974 3.40577 14.1116 3.44705 14.232 3.51872C14.3538 3.59125 14.4452 3.69425 14.5057 3.8264ZM14.5244 5.51782L14.5951 5.46873V5.55478V12.8334C14.5951 13.0484 14.5193 13.2296 14.3679 13.3738C14.2177 13.517 14.034 13.5944 13.8191 13.6062L13.8191 13.6063H13.8166H2.18337V13.6064L2.18089 13.6062C1.96603 13.5944 1.78233 13.517 1.63207 13.3738C1.48067 13.2296 1.40489 13.0484 1.40489 12.8334V5.55478V5.46873L1.47557 5.51782L7.61547 9.78288C7.73315 9.85698 7.86101 9.89389 8 9.89389C8.139 9.89389 8.26686 9.85698 8.38453 9.78288L14.5244 5.51782ZM15.337 2.66658C14.9366 2.26376 14.4308 2.05627 13.8162 2.04509H2.18376C1.56921 2.05627 1.06341 2.26376 0.663047 2.66658C0.26237 3.06971 0.0562554 3.56895 0.045 4.16718V12.833C0.0562554 13.4312 0.26237 13.9305 0.663047 14.3336C1.06342 14.7364 1.56922 14.9439 2.18378 14.9551H13.8162C14.4308 14.9439 14.9366 14.7364 15.337 14.3336C15.7376 13.9305 15.9437 13.4312 15.955 12.833V4.16719C15.9437 3.56896 15.7376 3.06972 15.337 2.66658Z" fill="#7F858D" stroke="white" stroke-width="0.09"/>
</svg>
